{"title":"Heroine of Hell 1996 DVDrip English Klam","uid":5797380,"size":1054690167,"categoryP":"video","categoryS":"movies","magnet":"?xt=urn:btih:e1cad48b6ce1c34c91b2469b9124f20f963d4f18&amp;dn=Heroine+of+Hell+1996+DVDrip+English+Klam&amp;tr=udp%3A%2F%2Ftracker.openbittorrent.com%3A80&amp;tr=udp%3A%2F%2Fopen.demonii.com%3A1337&amp;tr=udp%3A%2F%2Ftracker.coppersurfer.tk%3A6969&amp;tr=udp%3A%2F%2Fexodus.desync.com%3A6969","seeders":0,"leechers":0,"uploader":"Klambake","files":-1,"time":1283117227,"description":"With: Catherine Keener, Wendy Phillips en Dermot Mulroney\n\nMagda is an artist with a strong-willed, she has doubts about the reality of justice and decide the law into their own hands. Magda finds liberation by painting portraits of people in her eyes violators of justice. When Magda's boyfriend leaves her for another woman, she leaves the city. She goes on a personal crusade to take revenge on the murderers, adulterers and other people that do not meet its requirements. \n\nGeneral:\n\nComplete name                    : Heroine Of Hell\\Heroine of Hell.avi\nFormat                           : AVI\nFormat/Info                      : Audio Video Interleave\nFile size                        : 1005 MiB\nDuration                         : 1h 27mn\nOverall bit rate                 : 1610 Kbps\n\nVideo:\n\nFormat                           : MPEG-4 Visual\nFormat profile                   : Simple@L3\nFormat settings, BVOP            : No\nFormat settings, QPel            : No\nFormat settings, GMC             : No warppoints\nFormat settings, Matrix          : Default (H.263)\nCodec ID                         : XVID\nCodec ID/Hint                    : XviD\nDuration                         : 1h 27mn\nBit rate                         : 1 437 Kbps\nWidth                            : 720 pixels\nHeight                           : 400 pixels\nDisplay aspect ratio             : 16:9\nFrame rate                       : 25.000 fps\nColor space                      : YUV\nChroma subsampling               : 4:2:0\nBit depth                        : 8 bits\nScan type                        : Progressive\nBits/(Pixel*Frame)               : 0.200\nStream size                      : 897 MiB (89%)\nWriting library                  : XviD 1.1.2 (UTC 2006-11-01)\n\nAudio:\n\nFormat                           : MPEG Audio\nFormat version                   : Version 1\nFormat profile                   : Layer 3\nMode                             : Joint stereo\nMode extension                   : MS Stereo\nCodec ID                         : 55\nCodec ID/Hint                    : MP3\nDuration                         : 1h 27mn\nBit rate mode                    : Constant\nBit rate                         : 160 Kbps\nChannel(s)                       : 2 channels\nSampling rate                    : 48.0 KHz\nStream size                      : 99.9 MiB (10%)\nAlignment                        : Split accross interleaves\nInterleave, duration             : 24 ms (0.60 video frame)\nInterleave, preload duration     : 24 ms\n","torrent":{"xt":"urn:btih:e1cad48b6ce1c34c91b2469b9124f20f963d4f18","amp;dn":"Heroine+of+Hell+1996+DVDrip+English+Klam","amp;tr":["udp%3A%2F%2Ftracker.openbittorrent.com%3A80","udp%3A%2F%2Fopen.demonii.com%3A1337","udp%3A%2F%2Ftracker.coppersurfer.tk%3A6969","udp%3A%2F%2Fexodus.desync.com%3A6969"],"infoHash":"e1cad48b6ce1c34c91b2469b9124f20f963d4f18","infoHashBuffer":{"type":"Buffer","data":[225,202,212,139,108,225,195,76,145,178,70,155,145,36,242,15,150,61,79,24]},"announce":[],"urlList":[]}}